<svg width="18" height="18" viewBox="0 0 18 18" fill="none" xmlns="http://www.w3.org/2000/svg">
<path fill-rule="evenodd" clip-rule="evenodd" d="M9 17C13.4183 17 17 13.4183 17 9C17 4.58172 13.4183 1 9 1C4.58172 1 1 4.58172 1 9C1 13.4183 4.58172 17 9 17ZM9 18C13.9706 18 18 13.9706 18 9C18 4.02944 13.9706 0 9 0C4.02944 0 0 4.02944 0 9C0 13.9706 4.02944 18 9 18Z" fill="#B9CCE8"/>
<path d="M9.42959 10.9899H8.44959V8.95989C9.10293 8.83856 9.68626 8.57722 10.1996 8.17589C10.7129 7.78389 10.9696 7.31722 10.9696 6.77589C10.9696 6.24389 10.7689 5.81456 10.3676 5.48789C9.97559 5.16122 9.46693 4.99789 8.84159 4.99789C8.02959 4.99789 7.22693 5.27322 6.43359 5.82389V4.87189C7.14293 4.34922 7.99693 4.08789 8.99559 4.08789C9.84493 4.08789 10.5543 4.33056 11.1236 4.81589C11.7116 5.31056 12.0056 5.94989 12.0056 6.73389C12.0056 7.40589 11.7583 7.97522 11.2636 8.44189C10.7783 8.89922 10.1669 9.24922 9.42959 9.49189V10.9899ZM8.96759 14.0839C8.76226 14.0839 8.58959 14.0139 8.44959 13.8739C8.30959 13.7339 8.23959 13.5612 8.23959 13.3559C8.23959 13.1506 8.30959 12.9779 8.44959 12.8379C8.58959 12.6979 8.76226 12.6279 8.96759 12.6279C9.17293 12.6279 9.34559 12.6979 9.48559 12.8379C9.62559 12.9779 9.69559 13.1506 9.69559 13.3559C9.69559 13.5612 9.62559 13.7339 9.48559 13.8739C9.34559 14.0139 9.17293 14.0839 8.96759 14.0839Z" fill="#B9CCE8"/>
</svg>
