<svg width="155" height="22" viewBox="0 0 155 22" fill="none" xmlns="http://www.w3.org/2000/svg">
<path d="M5.58605 16.6364C7.0309 18.1313 8.80134 18.8788 10.8974 18.8788C12.9934 18.8788 14.7639 18.1313 16.2087 16.6364C17.6536 15.101 18.376 13.2222 18.376 11C18.376 8.75758 17.6536 6.88889 16.2087 5.39394C14.7639 3.87879 12.9934 3.12121 10.8974 3.12121C8.80134 3.12121 7.0309 3.87879 5.58605 5.39394C4.16156 6.86869 3.44931 8.73737 3.44931 11C3.44931 13.2626 4.16156 15.1414 5.58605 16.6364ZM18.7118 18.8485C16.6361 20.9495 14.0313 22 10.8974 22C7.7635 22 5.15871 20.9495 3.08301 18.8485C1.02767 16.7071 0 14.0909 0 11C0 7.88889 1.02767 5.28283 3.08301 3.18182C5.15871 1.06061 7.7635 0 10.8974 0C14.0313 0 16.6361 1.06061 18.7118 3.18182C20.7874 5.28283 21.8253 7.88889 21.8253 11C21.8253 14.1111 20.7874 16.7273 18.7118 18.8485Z" fill="#6067A9"/>
<path d="M30.4511 21.6061H27.1544V6.72727H30.4511V9.30303C30.9598 8.43434 31.7229 7.72727 32.7404 7.18182C33.7579 6.61616 34.8365 6.33333 35.9761 6.33333C36.1185 6.33333 36.2203 6.34343 36.2813 6.36364V9.63636C35.915 9.59596 35.6098 9.57576 35.3656 9.57576C34.2463 9.57576 33.239 9.85859 32.3436 10.4242C31.4482 10.9899 30.8174 11.6768 30.4511 12.4848V21.6061Z" fill="#6067A9"/>
<path d="M47.3977 22C45.1389 22 43.226 21.2626 41.659 19.7879C40.0921 18.2929 39.3086 16.404 39.3086 14.1212C39.3086 11.8384 40.0921 9.9697 41.659 8.51515C43.2463 7.06061 45.1694 6.33333 47.4282 6.33333C49.1376 6.33333 50.6435 6.67677 51.9459 7.36364V10.1818C50.5825 9.53535 49.2394 9.21212 47.9166 9.21212C46.4107 9.21212 45.1491 9.67677 44.1316 10.6061C43.1141 11.5556 42.6053 12.7374 42.6053 14.1515C42.6053 15.5859 43.1141 16.7778 44.1316 17.7273C45.1491 18.6566 46.4107 19.1212 47.9166 19.1212C49.5243 19.1212 50.9488 18.7475 52.1901 18V20.7879C50.7656 21.596 49.1682 22 47.3977 22Z" fill="#6067A9"/>
<path d="M60.6225 11.8182V21.6061H57.3258V0.39394H60.6225V8.69697C62.0877 7.12121 63.9192 6.33333 66.117 6.33333C67.8874 6.33333 69.2509 6.87879 70.2073 7.9697C71.1841 9.06061 71.6725 10.5758 71.6725 12.5152V21.6061H68.3758V13.2424C68.3758 11.8081 68.0299 10.8081 67.338 10.2424C66.6461 9.67677 65.8219 9.39394 64.8654 9.39394C64.0514 9.39394 63.2476 9.62626 62.454 10.0909C61.6603 10.5354 61.0498 11.1111 60.6225 11.8182Z" fill="#6067A9"/>
<path d="M76.0978 14.1515C76.0978 11.9091 76.81 10.0505 78.2345 8.57576C79.6793 7.08081 81.5312 6.33333 83.79 6.33333C85.3366 6.33333 86.6492 6.73737 87.7277 7.54545C89.8441 9.0404 90.9023 11.2828 90.9023 14.2727V15.1212H79.425C79.6285 16.3737 80.2288 17.3535 81.2259 18.0606C82.2434 18.7677 83.5255 19.1212 85.0721 19.1212C86.7815 19.1212 88.3891 18.6768 89.895 17.7879V20.5455C88.5112 21.5152 86.6695 22 84.37 22C82.0705 22 80.1067 21.2727 78.4787 19.8182C76.8914 18.3636 76.0978 16.4747 76.0978 14.1515ZM79.4555 12.6364H87.5751C87.5344 11.7071 87.1783 10.8889 86.5067 10.1818C85.8148 9.45455 84.8584 9.09091 83.6374 9.09091C82.4775 9.09091 81.5108 9.43434 80.7375 10.1212C79.9846 10.7879 79.5572 11.6263 79.4555 12.6364Z" fill="#6067A9"/>
<path d="M101.066 22C98.4007 22 96.3148 21.4949 94.8089 20.4848V17.3939C96.559 18.5859 98.594 19.1818 100.914 19.1818C101.952 19.1818 102.756 19.0303 103.325 18.7273C103.915 18.404 104.211 17.9697 104.211 17.4242C104.211 16.9394 103.905 16.5455 103.295 16.2424C103.03 16.1212 102.552 15.9697 101.86 15.7879L99.9981 15.3333C98.2277 14.8889 96.9456 14.3232 96.152 13.6364C95.3583 12.9293 94.9615 11.9495 94.9615 10.697C94.9615 9.34344 95.5211 8.28283 96.6404 7.51515C97.7596 6.72727 99.3164 6.33333 101.311 6.33333C103.61 6.33333 105.452 6.77778 106.836 7.66667V10.6667C105.025 9.65657 103.224 9.15152 101.433 9.15152C100.436 9.15152 99.6725 9.30303 99.1434 9.60606C98.6143 9.88889 98.3498 10.2828 98.3498 10.7879C98.3498 11.2525 98.6652 11.6465 99.2961 11.9697C99.3774 12.0101 99.8557 12.1616 100.731 12.4242L102.471 12.7879C105.889 13.5354 107.599 15.101 107.599 17.4848C107.599 18.8384 106.999 19.9293 105.798 20.7576C104.597 21.5859 103.02 22 101.066 22Z" fill="#6067A9"/>
<path d="M113.992 17.5455V9.60606H110.787V6.72727H113.992V2.39394H117.288V6.72727H122.02V9.60606H117.288V16.6061C117.288 17.4343 117.482 18.0404 117.868 18.4242C118.255 18.8081 118.845 19 119.639 19C120.432 19 121.185 18.8182 121.898 18.4545V21.2727C121.185 21.7576 120.076 22 118.57 22C117.146 22 116.027 21.6162 115.213 20.8485C114.399 20.0808 113.992 18.9798 113.992 17.5455Z" fill="#6067A9"/>
<path d="M130.117 21.6061H126.82V6.72727H130.117V9.30303C130.626 8.43434 131.389 7.72727 132.406 7.18182C133.424 6.61616 134.502 6.33333 135.642 6.33333C135.784 6.33333 135.886 6.34343 135.947 6.36364V9.63636C135.581 9.59596 135.276 9.57576 135.031 9.57576C133.912 9.57576 132.905 9.85859 132.009 10.4242C131.114 10.9899 130.483 11.6768 130.117 12.4848V21.6061Z" fill="#6067A9"/>
<path d="M154.115 19.0606C154.44 19.0606 154.735 18.9899 155 18.8485V21.3333C154.552 21.6566 153.911 21.8182 153.077 21.8182C151.368 21.8182 150.32 21.1111 149.933 19.697C148.569 21.2323 146.728 22 144.408 22C142.8 22 141.457 21.5556 140.379 20.6667C139.32 19.798 138.791 18.5758 138.791 17C138.791 15.4242 139.371 14.2121 140.531 13.3636C141.671 12.4949 143.095 12.0606 144.805 12.0606C146.616 12.0606 148.213 12.4444 149.597 13.2121V12.3939C149.597 10.2323 148.132 9.15152 145.202 9.15152C143.492 9.15152 141.915 9.59596 140.47 10.4848V7.60606C141.956 6.75758 143.777 6.33333 145.934 6.33333C148.05 6.33333 149.729 6.83838 150.971 7.84848C152.232 8.83838 152.863 10.2323 152.863 12.0303V17.5758C152.863 18.0404 152.975 18.404 153.199 18.6667C153.443 18.9293 153.748 19.0606 154.115 19.0606ZM149.597 17.3939V15.5758C148.335 14.8687 147.002 14.5152 145.598 14.5152C144.499 14.5152 143.635 14.7172 143.004 15.1212C142.393 15.5253 142.088 16.0909 142.088 16.8182C142.088 17.5859 142.373 18.1717 142.943 18.5758C143.533 18.9798 144.326 19.1818 145.324 19.1818C146.138 19.1818 146.931 19.0202 147.705 18.697C148.478 18.3535 149.109 17.9192 149.597 17.3939Z" fill="#6067A9"/>
</svg>
